<?xml version="1.0" encoding="UTF-8" ?>
<!DOCTYPE svg PUBLIC "-//W3C//DTD SVG 1.1//EN" "http://www.w3.org/Graphics/SVG/1.1/DTD/svg11.dtd">
<svg width="975pt" height="975pt" viewBox="0 0 975 975" version="1.1" xmlns="http://www.w3.org/2000/svg">
<g id="#8b5cf5ff">
<path fill="#8b5cf5" opacity="1.00" d=" M 128.45 13.59 C 134.95 13.16 141.47 12.94 148.00 12.95 C 376.34 13.08 604.68 12.95 833.02 13.01 C 882.49 12.40 930.39 43.17 950.86 88.13 C 959.74 106.35 963.14 126.83 962.99 146.99 C 963.04 376.99 962.95 607.00 963.03 837.01 C 963.67 880.29 940.18 922.54 904.01 945.99 C 882.23 960.36 856.04 967.44 830.01 967.00 C 600.01 967.03 370.00 966.94 139.99 967.05 C 119.98 967.52 99.99 962.68 82.06 953.89 C 39.75 933.57 10.28 889.04 9.31 841.95 C 8.56 773.64 9.22 705.32 9.00 637.00 C 9.00 472.00 9.01 306.99 8.99 141.99 C 8.95 118.02 16.38 94.29 29.03 74.01 C 50.17 39.71 88.26 16.54 128.45 13.59 M 201.06 299.97 C 200.92 429.98 201.04 560.01 201.00 690.03 C 198.81 719.31 227.13 745.78 256.08 742.37 C 282.74 741.40 305.80 715.71 303.08 689.01 C 303.03 637.44 302.83 585.87 303.13 534.30 C 303.82 533.56 304.52 532.82 305.22 532.09 C 364.07 532.07 422.93 531.64 481.78 532.32 C 482.41 583.88 481.70 635.46 482.06 687.02 C 482.12 697.27 483.32 708.15 489.10 716.92 C 499.24 735.02 521.31 745.83 541.83 741.72 C 565.27 738.92 584.63 716.69 584.01 693.03 C 583.98 563.02 584.02 432.99 583.99 302.97 C 585.91 276.08 562.10 250.15 535.00 250.80 C 507.98 248.93 483.18 272.20 482.09 299.03 C 481.61 346.58 482.53 394.16 481.68 441.71 C 424.46 442.35 367.22 441.86 309.99 441.99 C 304.19 444.76 302.52 437.64 303.12 433.99 C 302.66 388.99 303.31 343.97 302.93 298.97 C 302.90 272.72 278.17 249.52 252.00 250.98 C 225.36 249.35 201.22 273.74 201.06 299.97 M 717.44 260.50 C 704.73 261.77 691.53 266.03 682.73 275.74 C 666.00 292.34 665.25 321.83 680.24 339.75 C 702.66 366.91 751.79 364.73 770.43 334.40 C 778.57 321.69 778.79 305.05 773.92 291.08 C 765.39 269.19 740.01 257.47 717.44 260.50 M 714.43 408.51 C 693.41 412.05 676.05 432.33 677.91 453.97 C 678.17 535.66 677.84 617.35 678.06 699.04 C 677.81 723.08 701.13 744.26 725.01 742.07 C 749.01 742.51 769.05 719.39 768.04 696.02 C 768.00 617.68 767.92 539.33 768.08 460.99 C 767.81 452.65 768.24 443.87 764.93 436.03 C 757.73 416.02 735.14 404.05 714.43 408.51 Z" />
</g>
<g id="#fefeffff">
<path fill="#fefeff" opacity="1.00" d=" M 201.06 299.97 C 201.22 273.74 225.36 249.35 252.00 250.98 C 278.17 249.52 302.90 272.72 302.93 298.97 C 303.31 343.97 302.66 388.99 303.12 433.99 C 302.52 437.64 304.19 444.76 309.99 441.99 C 367.22 441.86 424.46 442.35 481.68 441.71 C 482.53 394.16 481.61 346.58 482.09 299.03 C 483.18 272.20 507.98 248.93 535.00 250.80 C 562.10 250.15 585.91 276.08 583.99 302.97 C 584.02 432.99 583.98 563.02 584.01 693.03 C 584.63 716.69 565.27 738.92 541.83 741.72 C 521.31 745.83 499.24 735.02 489.10 716.92 C 483.32 708.15 482.12 697.27 482.06 687.02 C 481.70 635.46 482.41 583.88 481.78 532.32 C 422.93 531.64 364.07 532.07 305.22 532.09 C 304.52 532.82 303.82 533.56 303.13 534.30 C 302.83 585.87 303.03 637.44 303.08 689.01 C 305.80 715.71 282.74 741.40 256.08 742.37 C 227.13 745.78 198.81 719.31 201.00 690.03 C 201.04 560.01 200.92 429.98 201.06 299.97 Z" />
<path fill="#fefeff" opacity="1.00" d=" M 717.44 260.50 C 740.01 257.47 765.39 269.19 773.92 291.08 C 778.79 305.05 778.57 321.69 770.43 334.40 C 751.79 364.73 702.66 366.91 680.24 339.75 C 665.25 321.83 666.00 292.34 682.73 275.74 C 691.53 266.03 704.73 261.77 717.44 260.50 Z" />
<path fill="#fefeff" opacity="1.00" d=" M 714.43 408.51 C 735.14 404.05 757.73 416.02 764.93 436.03 C 768.24 443.87 767.81 452.65 768.08 460.99 C 767.92 539.33 768.00 617.68 768.04 696.02 C 769.05 719.39 749.01 742.51 725.01 742.07 C 701.13 744.26 677.81 723.08 678.06 699.04 C 677.84 617.35 678.17 535.66 677.91 453.97 C 676.05 432.33 693.41 412.05 714.43 408.51 Z" />
</g>
</svg>
